inDegrees=yes
name=ik_S46_A12_T02
DataType=double
version=3
OpenSimVersion=4.3-2021-08-27-4bc7ad9
endheader
time	pelvis_tilt	pelvis_list	pelvis_rotation	pelvis_tx	pelvis_ty	pelvis_tz	hip_flexion_r	hip_adduction_r	hip_rotation_r	knee_angle_r	knee_angle_r_beta	ankle_angle_r	subtalar_angle_r	mtp_angle_r	hip_flexion_l	hip_adduction_l	hip_rotation_l	knee_angle_l	knee_angle_l_beta	ankle_angle_l	subtalar_angle_l	mtp_angle_l	lumbar_extension	lumbar_bending	lumbar_rotation	arm_flex_r	arm_add_r	arm_rot_r	elbow_flex_r	pro_sup_r	wrist_flex_r	wrist_dev_r	arm_flex_l	arm_add_l	arm_rot_l	elbow_flex_l	pro_sup_l	wrist_flex_l	wrist_dev_l
12.95999999999981	0.991947852184789	2.017925349469508	43.39947944716854	0	0.9399999999999999	0	33.99775383418212	-9.6851422671875	-9.175337503334346	38.95320591484459	0.6798616974213679	0	0	0	33.99775383418212	-9.6851422671875	-9.175337503334346	38.95320591484459	0.6798616974213679	0	0	0	2.198304804841704	1.577120718989871	-1.542753359654099	7.62239315917826	-10.58699618342038	-13.28310185320438	2.491754119003509	101.8399917890608	0	0	65.17456147248451	-33.73589456543376	3.14464585547728	21.47871016092139	63.78558203744848	0	0
12.97999999999981	1.074737411829319	2.025561900633917	44.0682828194895	0	0.9399999999999999	0	34.11126154450525	-9.692748025202263	-9.190135483711252	39.10291789794618	0.6824746644561808	0	0	0	34.11126154450525	-9.692748025202263	-9.190135483711252	39.10291789794618	0.6824746644561808	0	0	0	2.283210658701885	1.489672356182271	-2.099120174528594	7.283240500028716	-10.64096422499123	-13.27944091493109	2.508145587350712	102.0270586596127	0	0	58.68074159510819	-35.34098632068412	-1.739519734896508	22.92782961654082	65.57397281495783	0	0
12.99999999999981	1.133607773699269	2.052498816185687	44.28928623612092	0	0.9399999999999999	0	34.18884421926263	-9.697962308185334	-9.200270133663533	39.20449322320451	0.6842474883207228	0	0	0	34.18884421926263	-9.697962308185334	-9.200270133663533	39.20449322320451	0.6842474883207228	0	0	0	2.350208245559137	1.450354327215468	-2.304599814861076	6.99842150756635	-10.66551244922446	-13.16468530912109	2.619269377296685	101.9504988070253	0	0	55.24253510206829	-35.92408795080584	-4.386880876806731	21.85523444897593	66.74893970616723	0	0
13.01999999999981	1.214713381329967	2.097338779001837	44.5003931416034	0	0.9399999999999999	0	34.25995130389091	-9.702723415190997	-9.209539791185955	39.29746525292126	0.6858701563515421	0	0	0	34.25995130389091	-9.702723415190997	-9.209539791185955	39.29746525292126	0.6858701563515421	0	0	0	2.445711672206031	1.408575145236913	-2.502505937219469	6.637539002018335	-10.73284815437875	-13.04564616249552	2.733145125685272	102.022067439448	0	0	51.80317613838733	-36.39449754849696	-7.267850680079134	20.70511142074827	68.11937859539333	0	0
13.03999999999981	1.249648912686151	2.061222181469317	44.74376752651705	0	0.9399999999999999	0	34.32329273974395	-9.706940909028136	-9.217773324362089	39.38016538660003	0.6873135459760762	0	0	0	34.32329273974395	-9.706940909028136	-9.217773324362089	39.38016538660003	0.6873135459760762	0	0	0	2.450071443338429	1.346740352568262	-2.614725549935353	6.445748503927809	-10.78555181846303	-13.02987954721774	2.872625784412663	102.0794798190417	0	0	48.6925512368302	-36.66522124240853	-9.844587280972371	19.41373798373426	69.78937210014965	0	0
13.05999999999981	1.292313749869499	1.989971248467904	45.05346674838702	0	0.9399999999999999	0	34.32997425536028	-9.707567765980166	-9.218847462970551	39.38697314870165	0.687432363839442	0	0	0	34.32997425536028	-9.707567765980166	-9.218847462970551	39.38697314870165	0.687432363839442	0	0	0	2.427567189000831	1.272223561023156	-2.658239899462012	6.249489684066135	-10.80665321314565	-13.13339155821675	3.081873997586503	102.0740883431182	0	0	48.95335207955147	-36.55393335642168	-9.714298207446872	15.70042399105838	71.21020089265826	0	0
13.07999999999981	1.370352687806912	1.986736439063792	45.33152324762361	0	0.9399999999999999	0	34.39639188665478	-9.711918713414761	-9.227406639353083	39.47388265776641	0.6889492209239139	0	0	0	34.39639188665478	-9.711918713414761	-9.227406639353083	39.47388265776641	0.6889492209239139	0	0	0	2.483770121572722	1.20463583055741	-2.721880802133289	5.949504221591495	-10.81093196065579	-13.19044825488329	3.251738930935641	102.0110954417468	0	0	45.64091268175549	-36.65185649942561	-11.84864065189299	14.87169801632516	72.42701839739361	0	0
